# xmcd
#
# Track frame offsets:
#	150
#	10280
#	24800
#	33964
#	45040
#	55333
#	71519
#	80670
#	90936
#	95107
#
# Disc length: 1386 seconds
#
# Revision: 0
# Processed by: cddbd v1.5.1PL0 Copyright (c) Steve Scherf et al.
# Submitted via: dBpowerAMP V4.0
#
DISCID=6a05680a
DTITLE=Loretta Lynn - Coal Miner's Daughter
DYEAR=2005
DGENRE=Country
TTITLE0=You're Lookin' At Country
TTITLE1=Coal Miner's Daughter
TTITLE2=Fist City
TTITLE3=Hey Loretta
TTITLE4=Somebody Somewhere
TTITLE5=One's On The Way
TTITLE6=Your Squaw Is On The War Path
TTITLE7=Out Of My Head And Back In My Arms
TTITLE8=Back In My Baby's Arms
TTITLE9=She's Got You
EXTD=
EXTT0=
EXTT1=
EXTT2=
EXTT3=
EXTT4=
EXTT5=
EXTT6=
EXTT7=
EXTT8=
EXTT9=
PLAYORDER=
